<svg width="26" height="26" viewBox="0 0 26 26" fill="none" xmlns="http://www.w3.org/2000/svg">
<path d="M26 13C26 10.4288 25.2376 7.91543 23.8091 5.77759C22.3807 3.63975 20.3503 1.97351 17.9749 0.989572C15.5995 0.0056327 12.9856 -0.251811 10.4638 0.249797C7.94208 0.751405 5.6257 1.98953 3.80762 3.80762C1.98953 5.6257 0.751405 7.94208 0.249797 10.4638C-0.251811 12.9856 0.0056327 15.5995 0.989572 17.9749C1.97351 20.3503 3.63975 22.3807 5.77759 23.8091C7.91543 25.2376 10.4288 26 13 26C16.4468 25.9967 19.7515 24.626 22.1887 22.1887C24.626 19.7515 25.9967 16.4468 26 13ZM14 23.95V16H17C17.2652 16 17.5196 15.8946 17.7071 15.7071C17.8946 15.5196 18 15.2652 18 15C18 14.7348 17.8946 14.4804 17.7071 14.2929C17.5196 14.1054 17.2652 14 17 14H14V11C14 10.4696 14.2107 9.96087 14.5858 9.58579C14.9609 9.21072 15.4696 9.00001 16 9.00001H18C18.2652 9.00001 18.5196 8.89465 18.7071 8.70711C18.8946 8.51958 19 8.26522 19 8.00001C19 7.73479 18.8946 7.48044 18.7071 7.2929C18.5196 7.10536 18.2652 7.00001 18 7.00001H16C14.9402 7.0033 13.9247 7.42579 13.1752 8.17522C12.4258 8.92465 12.0033 9.94015 12 11V14H9.00001C8.73479 14 8.48044 14.1054 8.2929 14.2929C8.10536 14.4804 8.00001 14.7348 8.00001 15C8.00001 15.2652 8.10536 15.5196 8.2929 15.7071C8.48044 15.8946 8.73479 16 9.00001 16H12V23.95C9.181 23.6927 6.56971 22.3585 4.7093 20.225C2.8489 18.0914 1.8826 15.3228 2.0114 12.495C2.1402 9.66724 3.35419 6.99795 5.40085 5.04239C7.44751 3.08683 10.1693 1.99555 13 1.99555C15.8307 1.99555 18.5525 3.08683 20.5992 5.04239C22.6458 6.99795 23.8598 9.66724 23.9886 12.495C24.1174 15.3228 23.1511 18.0914 21.2907 20.225C19.4303 22.3585 16.819 23.6927 14 23.95Z" fill="#FF9F0E"/>
</svg>
