<svg width="20" height="20" viewBox="0 0 20 20" fill="none" xmlns="http://www.w3.org/2000/svg">
<path d="M10.0048 20C8.63809 20 7.34643 19.7373 6.12976 19.212C4.91309 18.6873 3.85076 17.9707 2.94276 17.062C2.03409 16.154 1.31743 15.0917 0.792761 13.875C0.267428 12.6583 0.00476074 11.3667 0.00476074 10C0.00476074 8.61667 0.267428 7.321 0.792761 6.113C1.31743 4.90433 2.03409 3.846 2.94276 2.938C3.85076 2.02933 4.91309 1.31233 6.12976 0.787C7.34643 0.262333 8.63809 0 10.0048 0C11.3881 0 12.6838 0.262333 13.8918 0.787C15.1004 1.31233 16.1588 2.02933 17.0668 2.938C17.9754 3.846 18.6921 4.90433 19.2168 6.113C19.7421 7.321 20.0048 8.61667 20.0048 10V11.45C20.0048 12.4333 19.6674 13.2707 18.9928 13.962C18.3174 14.654 17.4881 15 16.5048 15C15.9048 15 15.3464 14.8667 14.8298 14.6C14.3131 14.3333 13.8881 13.9833 13.5548 13.55C13.1048 14 12.5758 14.3543 11.9678 14.613C11.3591 14.871 10.7048 15 10.0048 15C8.62143 15 7.44243 14.5123 6.46776 13.537C5.49243 12.5623 5.00476 11.3833 5.00476 10C5.00476 8.61667 5.49243 7.43733 6.46776 6.462C7.44243 5.48733 8.62143 5 10.0048 5C11.3881 5 12.5674 5.48733 13.5428 6.462C14.5174 7.43733 15.0048 8.61667 15.0048 10V11.45C15.0048 11.9333 15.1548 12.3123 15.4548 12.587C15.7548 12.8623 16.1048 13 16.5048 13C16.9048 13 17.2548 12.8623 17.5548 12.587C17.8548 12.3123 18.0048 11.9333 18.0048 11.45V10C18.0048 7.81667 17.2171 5.93733 15.6418 4.362C14.0671 2.78733 12.1881 2 10.0048 2C7.82143 2 5.94209 2.78733 4.36676 4.362C2.79209 5.93733 2.00476 7.81667 2.00476 10C2.00476 12.1833 2.79209 14.0623 4.36676 15.637C5.94209 17.2123 7.82143 18 10.0048 18H15.0048V20H10.0048ZM10.0048 13C10.8381 13 11.5464 12.7083 12.1298 12.125C12.7131 11.5417 13.0048 10.8333 13.0048 10C13.0048 9.16667 12.7131 8.45833 12.1298 7.875C11.5464 7.29167 10.8381 7 10.0048 7C9.17143 7 8.46309 7.29167 7.87976 7.875C7.29643 8.45833 7.00476 9.16667 7.00476 10C7.00476 10.8333 7.29643 11.5417 7.87976 12.125C8.46309 12.7083 9.17143 13 10.0048 13Z" fill="#FF9F0E"/>
</svg>
