<svg width="65" height="46" viewBox="0 0 65 46" fill="none" xmlns="http://www.w3.org/2000/svg">
<path d="M12.2813 37.8275C14.3637 24.1507 25.7284 13.0255 37.3025 13.0427C37.3702 13.3919 37.5214 13.8325 37.4117 14.1709C35.5464 19.9237 38.0337 24.3895 42.0658 28.3457C45.1694 31.4688 48.7533 34.0172 53.037 35.3144C54.2631 35.6481 55.4893 35.9819 56.8199 36.0632C61.6936 36.4474 64.2569 33.8432 64.0136 29.0832C63.8531 25.8812 62.4139 23.205 60.4268 20.7541C57.0366 16.4919 52.6024 13.2876 47.3955 11.0713C46.352 10.6624 45.3085 10.2535 43.832 9.64564C48.8855 4.17404 55.7271 2.95295 62.2718 0.764679C61.1185 0.694198 59.9758 0.451808 58.8121 0.553236C52.7899 1.4793 47.1586 3.29202 42.6379 7.3295C41.3225 8.45696 40.1167 9.24602 38.1651 9.12674C30.6197 8.75186 24.2992 11.644 19.0005 16.7555C15.0279 20.5677 11.9942 25.0412 9.90488 30.09C9.38254 31.3522 8.86019 32.6144 7.93574 34.6285C5.50563 30.6839 3.39883 27.2766 1.29204 23.8694C1.02066 23.9391 0.744024 24.0947 0.472647 24.1644C0.341911 24.8466 0.0232582 25.6899 0.252609 26.3079C1.31591 29.3062 2.37922 32.3046 3.6252 35.2278C4.79822 37.8878 6.15393 40.4726 7.32695 43.1326C8.50524 45.7066 9.8878 46.395 11.6993 44.4351C14.8421 41.0899 17.6458 37.4651 20.5382 33.8458C20.9245 33.3517 20.6275 32.3845 20.5861 31.6055C19.6885 31.7232 18.5405 31.5668 17.9767 32.05C15.9983 33.8271 14.3694 35.7119 12.2813 37.8275ZM40.9501 13.0931C49.5542 15.0856 56.0544 19.4516 59.9441 27.1952C60.7313 28.8826 61.3149 30.9889 59.6394 32.1806C58.5223 32.9751 56.3828 33.0169 54.8853 32.7528C49.1718 31.5408 44.9255 28.1754 41.4571 23.7359C39.0685 20.5703 38.4697 17.2552 40.9501 13.0931Z" fill="#FCB62A"/>
</svg>
