<svg width="514" height="438" viewBox="0 0 514 438" fill="none" xmlns="http://www.w3.org/2000/svg">
<path d="M262.945 10.548C261.121 9.7608 259.908 11.1411 257.522 11.8282C254.066 12.8581 253.533 14.9346 254.793 16.0055C256.052 17.0763 258.09 16.0692 259.653 16.9141C261.245 17.6467 261.667 19.8294 263.316 20.0994C264.951 20.4256 266.367 18.7359 265.119 15.4656C264.264 13.2996 264.667 11.49 262.945 10.548Z" fill="white"/>
<path d="M258.98 6.83367C259.195 8.70511 258.466 10.4168 257.362 10.6585C256.202 10.8873 255.096 9.55884 254.881 7.6874C254.666 5.81595 255.395 4.1043 256.5 3.86257C257.659 3.63372 258.766 4.96222 258.98 6.83367Z" fill="white"/>
<path d="M267.801 11.2364C266.141 12.1206 265.264 13.6756 265.775 14.7076C266.286 15.7395 268.034 15.9088 269.694 15.0246C271.354 14.1404 272.231 12.5854 271.72 11.5534C271.152 10.5082 269.404 10.3389 267.801 11.2364Z" fill="white"/>
<path d="M264.608 5.76031C264.057 7.67411 262.589 8.93821 261.413 8.59878C260.237 8.25935 259.749 6.41005 260.3 4.49625C260.852 2.58245 262.319 1.31834 263.496 1.65777C264.672 1.99721 265.16 3.84652 264.608 5.76031Z" fill="white"/>
<path d="M265.755 6.07505C264.611 7.58102 264.511 9.33335 265.444 10.0119C266.432 10.7033 268.111 10.0681 269.242 8.61619C270.386 7.11023 270.486 5.3579 269.553 4.6794C268.633 3.94688 266.899 4.56909 265.755 6.07505Z" fill="white"/>
<path d="M50.2196 243.452C48.2649 243.803 48.0158 245.624 46.4067 247.514C44.095 250.282 44.7978 252.307 46.4393 252.504C48.0807 252.701 49.2234 250.735 50.993 250.576C52.7246 250.308 54.2819 251.894 55.8058 251.208C57.3486 250.577 57.5952 248.386 54.7489 246.349C52.8391 245.017 52.1755 243.285 50.2196 243.452Z" fill="white"/>
<path d="M44.8632 242.545C46.0759 243.987 46.4139 245.816 45.6267 246.628C44.787 247.459 43.1304 246.963 41.9177 245.522C40.7049 244.08 40.367 242.251 41.1541 241.439C41.9939 240.608 43.6504 241.104 44.8632 242.545Z" fill="white"/>
<path d="M54.6476 241.343C53.7524 242.997 53.8805 244.777 54.8768 245.355C55.8732 245.933 57.4236 245.108 58.3189 243.454C59.2142 241.8 59.086 240.02 58.0897 239.442C57.0391 238.884 55.4886 239.709 54.6476 241.343Z" fill="white"/>
<path d="M48.9616 238.542C49.5593 240.441 49.0343 242.306 47.8663 242.673C46.6982 243.04 45.2699 241.768 44.6723 239.868C44.0747 237.968 44.5997 236.104 45.7677 235.737C46.9357 235.37 48.364 236.642 48.9616 238.542Z" fill="white"/>
<path d="M50.0912 238.17C49.9693 240.058 50.8539 241.574 52.0068 241.624C53.2127 241.654 54.261 240.197 54.4013 238.363C54.5232 236.475 53.6386 234.959 52.4857 234.909C51.3145 234.807 50.2132 236.283 50.0912 238.17Z" fill="white"/>
<path d="M463.22 322.452C461.265 322.803 461.016 324.624 459.407 326.514C457.095 329.282 457.798 331.307 459.439 331.504C461.081 331.701 462.223 329.735 463.993 329.576C465.725 329.308 467.282 330.894 468.806 330.208C470.349 329.577 470.595 327.386 467.749 325.349C465.839 324.017 465.176 322.285 463.22 322.452Z" fill="white"/>
<path d="M457.863 321.545C459.076 322.987 459.414 324.816 458.627 325.628C457.787 326.459 456.13 325.963 454.918 324.522C453.705 323.08 453.367 321.251 454.154 320.439C454.994 319.608 456.65 320.104 457.863 321.545Z" fill="white"/>
<path d="M467.648 320.343C466.752 321.997 466.881 323.777 467.877 324.355C468.873 324.933 470.424 324.108 471.319 322.454C472.214 320.8 472.086 319.02 471.09 318.442C470.039 317.884 468.489 318.709 467.648 320.343Z" fill="white"/>
<path d="M461.962 317.542C462.559 319.441 462.034 321.306 460.866 321.673C459.698 322.04 458.27 320.768 457.672 318.868C457.075 316.968 457.6 315.104 458.768 314.737C459.936 314.37 461.364 315.642 461.962 317.542Z" fill="white"/>
<path d="M463.091 317.17C462.969 319.058 463.854 320.574 465.007 320.624C466.213 320.654 467.261 319.197 467.401 317.363C467.523 315.475 466.639 313.959 465.486 313.909C464.315 313.807 463.213 315.283 463.091 317.17Z" fill="white"/>
<path d="M343.22 75.4517C341.265 75.8027 341.016 77.6236 339.407 79.5144C337.095 82.2819 337.798 84.3073 339.439 84.5042C341.081 84.701 342.223 82.7355 343.993 82.5763C345.725 82.3076 347.282 83.8941 348.806 83.2081C350.349 82.5768 350.595 80.3863 347.749 78.3494C345.839 77.0165 345.176 75.2855 343.22 75.4517Z" fill="white"/>
<path d="M337.863 74.5454C339.076 75.9868 339.414 77.8162 338.627 78.6279C337.787 79.459 336.13 78.9631 334.918 77.5217C333.705 76.0803 333.367 74.2508 334.154 73.4392C334.994 72.6081 336.65 73.104 337.863 74.5454Z" fill="white"/>
<path d="M347.648 73.3428C346.752 74.9969 346.881 76.7775 347.877 77.3552C348.873 77.9328 350.424 77.1084 351.319 75.4543C352.214 73.8002 352.086 72.0196 351.09 71.4419C350.039 70.8843 348.489 71.7087 347.648 73.3428Z" fill="white"/>
<path d="M341.962 70.5416C342.559 72.4415 342.034 74.3059 340.866 74.6728C339.698 75.0397 338.27 73.7677 337.672 71.8678C337.075 69.968 337.6 68.1035 338.768 67.7366C339.936 67.3697 341.364 68.6417 341.962 70.5416Z" fill="white"/>
<path d="M343.091 70.1705C342.969 72.058 343.854 73.5739 345.007 73.6239C346.213 73.6542 347.261 72.1974 347.401 70.3626C347.523 68.4751 346.639 66.9592 345.486 66.9093C344.315 66.8066 343.213 68.283 343.091 70.1705Z" fill="white"/>
<g opacity="0.96">
<path d="M69.1272 330.33C56.1772 321.126 44.3778 329.898 24.5643 331.289C-4.1927 333.576 -11.8305 348.931 -3.76507 359.413C4.30034 369.895 21.9298 365.419 32.7471 374.639C43.9774 383.029 43.6318 400.81 56.0834 405.677C68.3287 410.959 82.2265 400.103 77.9293 372.434C74.8523 354.059 81.0281 340.575 69.1272 330.33Z" fill="white"/>
<path d="M44.315 294.648C42.8687 309.648 34.3075 321.823 25.2624 321.869C15.8117 321.724 9.3704 309.482 10.8166 294.482C12.2629 279.482 20.8242 267.308 29.8692 267.261C39.32 267.406 45.7612 279.648 44.315 294.648Z" fill="white"/>
<path d="M105.97 343.824C91.5057 347.969 82.0488 358.671 84.3262 367.599C86.6036 376.526 99.9956 380.77 114.46 376.624C128.924 372.478 138.381 361.777 136.103 352.849C133.408 343.724 120.016 339.48 105.97 343.824Z" fill="white"/>
<path d="M90.1401 295.65C82.6301 309.702 69.0373 317.141 60.4012 312.521C51.765 307.901 51.0359 292.618 58.5459 278.566C66.0558 264.513 79.6487 257.074 88.2849 261.694C96.921 266.314 97.6501 281.597 90.1401 295.65Z" fill="white"/>
<path d="M98.5854 300.026C87.1173 309.897 83.4083 323.44 89.5779 330.307C96.1558 337.368 110.35 335.201 121.619 325.73C133.087 315.859 136.796 302.316 130.627 295.449C124.656 288.182 110.053 290.155 98.5854 300.026Z" fill="white"/>
</g>
<g opacity="0.96">
<path d="M427.164 175.33C440.114 166.126 451.913 174.898 471.726 176.289C500.484 178.576 508.121 193.931 500.056 204.413C491.99 214.895 474.361 210.419 463.544 219.639C452.313 228.029 452.659 245.81 440.207 250.677C427.962 255.959 414.064 245.103 418.362 217.434C421.439 199.059 415.263 185.575 427.164 175.33Z" fill="white"/>
<path d="M451.976 139.648C453.422 154.648 461.983 166.823 471.028 166.869C480.479 166.724 486.92 154.482 485.474 139.482C484.028 124.482 475.467 112.308 466.422 112.261C456.971 112.406 450.53 124.648 451.976 139.648Z" fill="white"/>
<path d="M390.321 188.824C404.785 192.969 414.242 203.671 411.965 212.599C409.687 221.526 396.295 225.77 381.831 221.624C367.367 217.478 357.91 206.777 360.188 197.849C362.883 188.724 376.275 184.48 390.321 188.824Z" fill="white"/>
<path d="M406.151 140.65C413.661 154.702 427.254 162.141 435.89 157.521C444.526 152.901 445.255 137.618 437.745 123.566C430.235 109.513 416.642 102.074 408.006 106.694C399.37 111.314 398.641 126.597 406.151 140.65Z" fill="white"/>
<path d="M397.705 145.026C409.174 154.897 412.883 168.44 406.713 175.307C400.135 182.368 385.941 180.201 374.672 170.73C363.204 160.859 359.495 147.316 365.664 140.449C371.635 133.182 386.237 135.155 397.705 145.026Z" fill="white"/>
</g>
<path d="M73.3884 426.14C71.41 426.313 70.9976 428.105 69.2244 429.842C66.6725 432.39 67.1897 434.471 68.8067 434.815C70.4236 435.159 71.739 433.304 73.5158 433.306C75.2645 433.194 76.6724 434.915 78.2519 434.369C79.8454 433.88 80.2887 431.72 77.6378 429.435C75.8561 427.935 75.3513 426.151 73.3884 426.14Z" fill="white"/>
<path d="M68.1356 424.754C69.2133 426.299 69.3848 428.152 68.5277 428.889C67.6163 429.641 66.0113 428.998 64.9336 427.453C63.8558 425.908 63.6843 424.055 64.5415 423.318C65.4528 422.566 67.0579 423.209 68.1356 424.754Z" fill="white"/>
<path d="M77.9887 424.44C76.9478 426.006 76.9148 427.791 77.8549 428.456C78.795 429.121 80.4136 428.44 81.4544 426.874C82.4953 425.307 82.5283 423.522 81.5882 422.857C80.5922 422.207 78.9737 422.888 77.9887 424.44Z" fill="white"/>
<path d="M72.5786 421.137C73.0023 423.083 72.3113 424.892 71.1149 425.152C69.9185 425.412 68.6108 424.017 68.1871 422.071C67.7633 420.124 68.4544 418.315 69.6508 418.055C70.8471 417.795 72.1548 419.191 72.5786 421.137Z" fill="white"/>
<path d="M73.7371 420.869C73.4453 422.738 74.1896 424.327 75.3332 424.481C76.5314 424.62 77.707 423.264 78.0122 421.449C78.304 419.581 77.5597 417.991 76.416 417.837C75.2589 417.629 74.0289 419 73.7371 420.869Z" fill="white"/>
<path d="M55.9778 193.299C55.0851 192.651 54.2594 193.252 52.8826 193.334C50.884 193.472 50.3425 194.533 50.8951 195.267C51.4476 196 52.675 195.702 53.4196 196.35C54.1934 196.941 54.1566 198.175 55.0177 198.522C55.8642 198.898 56.8371 198.154 56.5587 196.23C56.3582 194.951 56.7968 194.02 55.9778 193.299Z" fill="white"/>
<path d="M54.2804 190.804C54.1692 191.844 53.5659 192.684 52.9378 192.68C52.2816 192.663 51.8432 191.809 51.9544 190.768C52.0656 189.728 52.6689 188.888 53.297 188.892C53.9532 188.908 54.3917 189.763 54.2804 190.804Z" fill="white"/>
<path d="M58.5264 194.263C57.519 194.541 56.8546 195.277 57.0063 195.898C57.1581 196.52 58.085 196.824 59.0924 196.547C60.0997 196.269 60.7641 195.533 60.6124 194.911C60.4318 194.276 59.5049 193.972 58.5264 194.263Z" fill="white"/>
<path d="M57.4619 190.906C56.9303 191.877 55.981 192.384 55.3846 192.057C54.7882 191.729 54.7486 190.668 55.2802 189.697C55.8119 188.727 56.7611 188.22 57.3575 188.547C57.9539 188.874 57.9935 189.936 57.4619 190.906Z" fill="white"/>
<path d="M58.0452 191.216C57.2417 191.894 56.9744 192.831 57.3979 193.313C57.8496 193.808 58.8368 193.667 59.6262 193.018C60.4296 192.341 60.697 191.403 60.2735 190.922C59.8641 190.413 58.8487 190.539 58.0452 191.216Z" fill="white"/>
<path d="M334.77 16.5047C333.878 15.8562 333.052 16.4569 331.675 16.5392C329.677 16.6773 329.135 17.7381 329.688 18.4718C330.24 19.2054 331.468 18.9073 332.212 19.5554C332.986 20.1461 332.949 21.3806 333.81 21.7275C334.657 22.1031 335.63 21.3593 335.351 19.4348C335.151 18.1566 335.589 17.2247 334.77 16.5047Z" fill="white"/>
<path d="M333.073 14.009C332.962 15.0496 332.359 15.8888 331.73 15.8855C331.074 15.8686 330.636 15.0139 330.747 13.9733C330.858 12.9327 331.461 12.0935 332.09 12.0968C332.746 12.1136 333.184 12.9684 333.073 14.009Z" fill="white"/>
<path d="M337.319 17.4682C336.312 17.7457 335.647 18.482 335.799 19.1036C335.951 19.7252 336.878 20.0295 337.885 19.7521C338.892 19.4746 339.557 18.7383 339.405 18.1167C339.224 17.4811 338.298 17.1767 337.319 17.4682Z" fill="white"/>
<path d="M336.254 14.1116C335.723 15.082 334.774 15.5888 334.177 15.2617C333.581 14.9347 333.541 13.8729 334.073 12.9025C334.604 11.9321 335.554 11.4253 336.15 11.7523C336.746 12.0794 336.786 13.1412 336.254 14.1116Z" fill="white"/>
<path d="M336.838 14.4216C336.034 15.0988 335.767 16.0365 336.19 16.5178C336.642 17.0129 337.629 16.8727 338.419 16.2231C339.222 15.5458 339.49 14.6081 339.066 14.1268C338.657 13.6179 337.641 13.7444 336.838 14.4216Z" fill="white"/>
<path d="M37.6819 326.538C36.5831 326.637 36.3567 327.632 35.3742 328.601C33.9603 330.02 34.2508 331.175 35.1496 331.364C36.0485 331.552 36.7764 330.52 37.7635 330.518C38.7349 330.454 39.5196 331.407 40.3963 331.102C41.2808 330.828 41.5238 329.627 40.0477 328.362C39.0555 327.531 38.7724 326.541 37.6819 326.538Z" fill="white"/>
<path d="M34.7616 325.776C35.3626 326.632 35.4607 327.661 34.9856 328.072C34.4805 328.491 33.5878 328.136 32.9867 327.28C32.3857 326.423 32.2876 325.394 32.7627 324.983C33.2679 324.564 34.1605 324.919 34.7616 325.776Z" fill="white"/>
<path d="M40.235 325.586C39.6591 326.458 39.6435 327.449 40.1668 327.817C40.6901 328.186 41.5882 327.805 42.1641 326.933C42.74 326.061 42.7556 325.069 42.2324 324.701C41.678 324.342 40.7799 324.722 40.235 325.586Z" fill="white"/>
<path d="M37.2245 323.759C37.4628 324.84 37.0816 325.846 36.4174 325.992C35.7531 326.138 35.0245 325.365 34.7861 324.284C34.5478 323.204 34.929 322.198 35.5932 322.051C36.2575 321.905 36.9861 322.679 37.2245 323.759Z" fill="white"/>
<path d="M37.8677 323.609C37.7084 324.647 38.1243 325.529 38.7599 325.613C39.4257 325.688 40.0768 324.933 40.2436 323.925C40.4029 322.886 39.987 322.004 39.3514 321.92C38.7082 321.806 38.0269 322.57 37.8677 323.609Z" fill="white"/>
<path d="M488.066 389.743C489.165 389.842 489.391 390.838 490.373 391.806C491.787 393.225 491.497 394.38 490.598 394.569C489.699 394.758 488.971 393.725 487.984 393.723C487.013 393.659 486.228 394.613 485.351 394.307C484.467 394.033 484.224 392.832 485.7 391.567C486.692 390.736 486.975 389.746 488.066 389.743Z" fill="white"/>
<path d="M490.986 388.981C490.385 389.838 490.287 390.866 490.762 391.277C491.267 391.696 492.16 391.341 492.761 390.485C493.362 389.628 493.46 388.599 492.985 388.188C492.48 387.769 491.587 388.124 490.986 388.981Z" fill="white"/>
<path d="M485.513 388.791C486.088 389.663 486.104 390.655 485.581 391.023C485.058 391.391 484.159 391.01 483.584 390.138C483.008 389.266 482.992 388.275 483.515 387.906C484.07 387.547 484.968 387.928 485.513 388.791Z" fill="white"/>
<path d="M488.523 386.964C488.285 388.045 488.666 389.051 489.33 389.197C489.994 389.344 490.723 388.57 490.961 387.49C491.2 386.409 490.819 385.403 490.154 385.257C489.49 385.11 488.761 385.884 488.523 386.964Z" fill="white"/>
<path d="M487.88 386.814C488.039 387.852 487.623 388.734 486.988 388.818C486.322 388.894 485.671 388.138 485.504 387.13C485.345 386.091 485.761 385.209 486.396 385.125C487.039 385.012 487.721 385.775 487.88 386.814Z" fill="white"/>
<path d="M204.68 47.5397C203.583 47.6649 203.381 48.6656 202.421 49.6566C201.041 51.1088 201.359 52.2567 202.262 52.4242C203.165 52.5917 203.868 51.5426 204.855 51.5172C205.825 51.4299 206.632 52.3648 207.501 52.0386C208.379 51.7435 208.593 50.5378 207.088 49.3073C206.076 48.5005 205.77 47.5171 204.68 47.5397Z" fill="white"/>
<path d="M201.742 46.8469C202.363 47.6892 202.485 48.7154 202.02 49.1375C201.525 49.5684 200.624 49.2345 200.003 48.3923C199.382 47.55 199.26 46.5237 199.725 46.1017C200.22 45.6708 201.121 46.0046 201.742 46.8469Z" fill="white"/>
<path d="M207.209 46.528C206.654 47.4132 206.662 48.405 207.194 48.7607C207.726 49.1164 208.615 48.7144 209.17 47.8292C209.725 46.944 209.717 45.9522 209.185 45.5965C208.623 45.25 207.734 45.652 207.209 46.528Z" fill="white"/>
<path d="M204.157 44.7729C204.42 45.8475 204.063 46.8625 203.402 47.0244C202.742 47.1862 201.995 46.4303 201.731 45.3557C201.468 44.2811 201.825 43.2661 202.486 43.1042C203.146 42.9423 203.893 43.6983 204.157 44.7729Z" fill="white"/>
<path d="M204.796 44.6072C204.661 45.6493 205.098 46.5213 205.735 46.5899C206.403 46.6496 207.036 45.8792 207.179 44.867C207.314 43.8249 206.877 42.9529 206.24 42.8843C205.594 42.7857 204.931 43.5651 204.796 44.6072Z" fill="white"/>
<path d="M500.275 248.633C498.52 249.561 498.836 251.372 497.878 253.662C496.518 257.002 497.803 258.718 499.427 258.406C501.05 258.094 501.541 255.874 503.179 255.185C504.746 254.402 506.712 255.44 507.956 254.323C509.233 253.252 508.802 251.091 505.471 250.016C503.247 249.327 502.088 247.879 500.275 248.633Z" fill="white"/>
<path d="M494.897 249.398C496.491 250.403 497.369 252.043 496.866 253.055C496.319 254.102 494.59 254.134 492.996 253.129C491.402 252.125 490.524 250.485 491.027 249.472C491.574 248.425 493.303 248.394 494.897 249.398Z" fill="white"/>
<path d="M503.852 245.277C503.502 247.125 504.166 248.782 505.291 249.03C506.416 249.277 507.642 248.02 507.992 246.172C508.342 244.324 507.678 242.667 506.553 242.419C505.383 242.208 504.156 243.465 503.852 245.277Z" fill="white"/>
<path d="M497.584 244.338C498.731 245.966 498.798 247.902 497.796 248.606C496.795 249.311 495.048 248.534 493.901 246.906C492.754 245.277 492.687 243.342 493.688 242.637C494.689 241.932 496.437 242.71 497.584 244.338Z" fill="white"/>
<path d="M498.547 243.641C499.005 245.476 500.308 246.651 501.422 246.348C502.58 246.01 503.136 244.303 502.711 242.513C502.253 240.678 500.95 239.503 499.836 239.806C498.689 240.064 498.089 241.805 498.547 243.641Z" fill="white"/>
</svg>
