<svg aria-hidden="true" style="position: absolute; width: 0; height: 0; overflow: hidden;" version="1.1" xmlns="http://www.w3.org/2000/svg" xmlns:xlink="http://www.w3.org/1999/xlink">
<defs>
<symbol id="icon-arrow-up" viewBox="0 0 15 32">
<path fill="#ff9f0e" style="fill: var(--color1, #ff9f0e)" d="M8.196 1.216c-0.17-0.171-0.406-0.276-0.666-0.276s-0.496 0.106-0.666 0.276l-5.99 5.99c-0.171 0.171-0.276 0.406-0.276 0.666 0 0.52 0.422 0.942 0.942 0.942 0.26 0 0.496-0.105 0.666-0.276l5.323-5.325 5.323 5.325c0.171 0.171 0.406 0.276 0.666 0.276 0.52 0 0.942-0.422 0.942-0.942 0-0.26-0.105-0.496-0.276-0.666v0l-5.99-5.99zM6.588 1.882v30.118h1.882v-30.118h-1.882z"></path>
</symbol>
<symbol id="icon-basket" viewBox="0 0 32 32">
<path fill="#ff9f0e" style="fill: var(--color1, #ff9f0e)" d="M1.504 12.4h29v-2.134h-29v2.134zM29.87 11.766v0.936h2.134v-0.936h-2.134zM26.427 29.466h-20.847v2.134h20.848v-2.134zM2.137 12.704v-0.937h-2.133v0.936h2.132zM6.182 29.838c-2.55-4.992-4.045-10.889-4.045-17.134v0h-2.133c0 6.28 1.461 12.474 4.27 18.090l1.907-0.956zM5.58 29.467c0.256 0 0.489 0.146 0.602 0.371l-1.907 0.956c0.246 0.481 0.738 0.805 1.306 0.806h0v-2.134zM25.826 29.838c0.113-0.222 0.339-0.371 0.601-0.371 0 0 0 0 0.001 0h-0v2.133c0.554 0 1.058-0.312 1.306-0.806l-1.907-0.956zM29.87 12.704c-0.001 6.246-1.495 12.142-4.145 17.352l0.101-0.218 1.907 0.956c2.693-5.27 4.271-11.496 4.271-18.090v-0h-2.134zM30.504 12.4c-0.35 0-0.633-0.283-0.634-0.633v-0h2.134c0-0 0-0.001 0-0.001 0-0.828-0.671-1.499-1.499-1.499-0 0-0.001 0-0.001 0h0v2.133zM1.504 10.267c-0.828 0-1.5 0.672-1.5 1.5v0h2.132c0 0.35-0.284 0.634-0.634 0.634v0-2.134zM8.386 11.882l6.4-10.666-1.832-1.097-6.4 10.666 1.832 1.096zM17.222 1.215l6.4 10.666 1.83-1.096-6.4-10.667-1.83 1.096zM10.67 20.934h10.666v-2.134h-10.666v2.134z"></path>
</symbol>
<symbol id="icon-bone" viewBox="0 0 73 32">
<path fill="#fa0" style="fill: var(--color2, #fa0)" d="M72.672 13.749c0.834-1.89 0.379-4.677 0-6.752-0.291-1.746-1.046-3.279-2.132-4.513l0.009 0.010c-1.097-1.28-2.718-1.886-4.247-2.249-1.211-0.315-3.038-0.336-4.247 0-1.209 0.334-1.166 1.335-2.126 2.249-2.382 2.171-5.454 2.327-8.491 2.251h-29.733c-3.040 0.075-6.11-0.078-8.494-2.251-0.955-0.914-0.914-1.915-2.123-2.249-1.209-0.336-3.033-0.315-4.247 0-1.531 0.366-3.152 0.969-4.247 2.249-1.097 1.28-1.829 2.738-2.126 4.503-0.377 2.075-0.832 4.862 0 6.752 0.304 0.681 2.126 1.486 2.126 2.251s-1.822 1.57-2.126 2.251c-0.83 1.893-0.377 4.677 0 6.752 0.297 1.767 1.029 3.221 2.126 4.503 1.097 1.28 2.718 1.881 4.247 2.249 1.211 0.315 3.038 0.336 4.247 0 1.209-0.334 1.166-1.335 2.126-2.249 2.379-2.176 5.451-2.322 8.491-2.251h29.733c3.040-0.071 6.112 0.075 8.494 2.251 0.955 0.914 0.914 1.915 2.123 2.249 1.209 0.336 3.033 0.315 4.247 0 1.531-0.368 3.152-0.967 4.247-2.249 1.097-1.282 1.829-2.736 2.126-4.503 0.377-2.075 0.83-4.859 0-6.752-0.304-0.681-2.126-1.486-2.126-2.251s1.822-1.57 2.126-2.251z"></path>
</symbol>
<symbol id="icon-close" viewBox="0 0 32 32">
<path fill="none" stroke="#ff9f0e" style="stroke: var(--color1, #ff9f0e)" stroke-linejoin="miter" stroke-linecap="round" stroke-miterlimit="4" stroke-width="4.5714" d="M2.286 2.286l13.714 13.714 13.714-13.714M2.286 29.714l13.714-13.714 13.714 13.714"></path>
</symbol>
<symbol id="icon-curve-arrow" viewBox="0 0 40 32">
<path fill="#fa0" style="fill: var(--color2, #fa0)" d="M7.988 26.113c1.339-9.333 8.223-16.898 15.348-16.935 0.040 0.238 0.231 0.458 0.162 0.689-1.172 3.93 0.417 6.996 2.882 9.676 1.898 2.117 4.031 3.838 6.663 4.705 0.754 0.222 1.395 0.537 2.213 0.587 2.999 0.242 4.726-1.678 4.595-4.923-0.085-2.183-1.103-3.906-2.316-5.57-2.069-2.892-4.782-5.104-7.978-6.594-0.641-0.274-1.279-0.629-2.186-1.038 3.134-3.751 7.376-4.571 11.413-6.091-0.709-0.043-1.319-0.198-2.037-0.124-3.711 0.656-7.308 2.041-10.109 4.813-0.814 0.774-1.529 1.264-2.731 1.19-4.644-0.223-8.482 1.657-11.765 5.165-2.462 2.616-4.365 5.704-5.671 9.155-0.327 0.862-0.634 1.716-1.212 3.093-1.48-2.68-2.77-4.946-4.053-7.26-0.167 0.048-0.254 0.152-0.421 0.2-0.084 0.466-0.439 1.145-0.3 1.566 0.642 2.040 1.33 4.020 2.085 6.009 0.711 1.808 1.62 3.536 2.33 5.345 0.715 1.75 1.484 2.181 2.607 0.837 1.949-2.293 3.752-4.647 5.548-7.126 0.24-0.339 0.119-1.047 0.097-1.578-0.553 0.084-1.308 0.020-1.657 0.351-1.225 1.22-2.213 2.407-3.507 3.858zM25.591 9.090c5.288 1.323 9.319 4.271 11.682 9.534 0.478 1.147 0.829 2.561-0.208 3.381-0.691 0.546-1.972 0.676-2.893 0.502-3.512-0.802-6.092-3.143-8.209-6.156-1.457-2.148-1.918-4.413-0.372-7.262z"></path>
</symbol>
<symbol id="icon-dog-head" viewBox="0 0 32 32">
<path fill="#ff9f0e" style="fill: var(--color1, #ff9f0e)" d="M6.467 29.333v-12.8l-0.367-0.367c-0.24-0.241-0.432-0.529-0.561-0.85l-0.006-0.017c-0.133-0.333-0.2-0.677-0.2-1.033-0-0.004-0-0.008-0-0.012 0-0.724 0.293-1.38 0.767-1.855l-0 0 4.367-4.4h5.333l5.333-5.333 2.733 2.733c0.852 0.845 1.547 1.845 2.042 2.954l0.025 0.062c0.489 1.123 0.733 2.317 0.733 3.584s-0.244 2.461-0.733 3.584c-0.519 1.171-1.215 2.171-2.066 3.015l-2.734 2.734v8h-14.667zM9.133 26.667h9.333v-6.433l3.5-3.5c0.614-0.608 1.119-1.326 1.482-2.122l0.018-0.045c0.356-0.8 0.533-1.656 0.533-2.567 0-0.889-0.184-1.733-0.551-2.533-0.388-0.836-0.885-1.552-1.484-2.168l0.002 0.002-0.833-0.867-4.233 4.233h-5.333l-0.767 0.767 2.233 2.233c0.623 0.623 1.107 1.339 1.451 2.149 0.344 0.812 0.516 1.661 0.516 2.551s-0.167 1.739-0.5 2.551c-0.357 0.85-0.853 1.576-1.466 2.182l-0.001 0.001-3.9-3.9v7.467z"></path>
</symbol>
<symbol id="icon-facebook" viewBox="0 0 32 32">
<path fill="#ff9f0e" style="fill: var(--color1, #ff9f0e)" d="M32 16c0-8.837-7.163-16-16-16s-16 7.163-16 16c0 8.837 7.163 16 16 16v0c8.833-0.008 15.992-7.167 16-15.999v-0.001zM17.231 29.477v-9.785h3.692c0.68 0 1.231-0.551 1.231-1.231s-0.551-1.231-1.231-1.231v0h-3.692v-3.692c0-1.359 1.102-2.462 2.462-2.462v0h2.462c0.68 0 1.231-0.551 1.231-1.231s-0.551-1.231-1.231-1.231v0h-2.462c-2.715 0.009-4.914 2.208-4.923 4.922v3.693h-3.692c-0.68 0-1.231 0.551-1.231 1.231s0.551 1.231 1.231 1.231v0h3.692v9.785c-6.929-0.651-12.308-6.439-12.308-13.482 0-7.477 6.061-13.538 13.538-13.538s13.538 6.061 13.538 13.538c0 7.044-5.379 12.831-12.254 13.478l-0.054 0.004z"></path>
</symbol>
<symbol id="icon-instagram" viewBox="0 0 32 32">
<path fill="none" stroke="#ff9f0e" style="stroke: var(--color1, #ff9f0e)" stroke-linejoin="round" stroke-linecap="round" stroke-miterlimit="4" stroke-width="2.4615" d="M16 22.564c3.625 0 6.564-2.939 6.564-6.564s-2.939-6.564-6.564-6.564v0c-3.625 0-6.564 2.939-6.564 6.564s2.939 6.564 6.564 6.564v0z"></path>
<path fill="none" stroke="#ff9f0e" style="stroke: var(--color1, #ff9f0e)" stroke-linejoin="miter" stroke-linecap="butt" stroke-miterlimit="4" stroke-width="2.4615" d="M1.231 22.564v-13.127c0-4.532 3.674-8.206 8.206-8.206v0h13.127c4.532 0 8.206 3.674 8.206 8.206v0 13.127c0 4.532-3.674 8.206-8.206 8.206v0h-13.127c-4.532 0-8.206-3.674-8.206-8.206v0z"></path>
<path fill="none" stroke="#ff9f0e" style="stroke: var(--color1, #ff9f0e)" stroke-linejoin="round" stroke-linecap="round" stroke-miterlimit="4" stroke-width="2.4615" d="M25.025 6.991l0.017-0.018"></path>
</symbol>
<symbol id="icon-long-arrow" viewBox="0 0 84 32">
<path fill="#ff9f0e" style="fill: var(--color1, #ff9f0e)" d="M82.414 17.414c0.362-0.362 0.586-0.862 0.586-1.414s-0.224-1.052-0.586-1.414l-12.728-12.728c-0.364-0.377-0.874-0.611-1.439-0.611-1.105 0-2 0.895-2 2 0 0.565 0.234 1.074 0.61 1.438l0.001 0.001 11.314 11.314-11.314 11.314c-0.347 0.359-0.561 0.849-0.561 1.389 0 1.105 0.895 2 2 2 0.54 0 1.030-0.214 1.39-0.562l-0.001 0.001 12.728-12.728zM1 18h80v-4h-80v4z"></path>
</symbol>
<symbol id="icon-menu" viewBox="0 0 32 32">
<path fill="#ff9f0e" style="fill: var(--color1, #ff9f0e)" d="M29.333 24.007c0 0.733-0.595 1.327-1.327 1.327h-10.68c-0.733 0-1.327-0.594-1.327-1.327s0.594-1.327 1.327-1.327h10.68c0.733 0 1.327 0.593 1.327 1.327zM29.333 16c0 0.733-0.595 1.327-1.327 1.327h-24.013c-0.733 0-1.327-0.594-1.327-1.327s0.594-1.327 1.327-1.327h24.013c0.733 0 1.327 0.595 1.327 1.327zM28.007 9.32c0.733 0 1.327-0.594 1.327-1.327s-0.594-1.327-1.327-1.327h-16.013c-0.733 0-1.327 0.594-1.327 1.327s0.594 1.327 1.327 1.327h16.013z"></path>
</symbol>
<symbol id="icon-paw" viewBox="0 0 32 32">
<path fill="#fcb62a" style="fill: var(--color3, #fcb62a)" d="M15.556 18.558c0.182 3.69 2.86 4.16 5.36 7.262 3.694 4.434 6.666 3.118 7.172-0.080 0.476-3.072-2.12-5.266-2.292-8.55s2.27-6.254 1.524-9.188c-0.746-2.934-3.824-3.4-7.096 1.99-2.21 3.718-4.756 4.904-4.668 8.566z"></path>
<path fill="#ff9f0e" style="fill: var(--color1, #ff9f0e)" d="M9.97 9.46c2.092 1.698 4.58 1.090 5.466-0.78s-0.184-5.15-2.3-6.73c-2.094-1.7-4.584-1.094-5.47 0.778-0.86 1.752 0.212 5.032 2.304 6.73z"></path>
<path fill="#fcb62a" style="fill: var(--color3, #fcb62a)" d="M4.798 18.93c2.466 0.132 4.71-1.56 4.986-4.028 0.248-2.342-1.526-4.402-4.076-4.56-2.468-0.136-4.712 1.558-4.988 4.024-0.248 2.346 1.61 4.434 4.080 4.564z"></path>
<path fill="#fa0" style="fill: var(--color2, #fa0)" d="M5.972 30.71c2.24 0.048 4.48-1.872 4.786-4.366 0.28-2.366-1.156-5.012-3.472-5.086-2.242-0.048-4.48 1.872-4.788 4.366-0.28 2.368 1.232 5.038 3.474 5.086z"></path>
</symbol>
<symbol id="icon-phone" viewBox="0 0 32 32">
<path fill="#ff9f0e" style="fill: var(--color1, #ff9f0e)" d="M27.833 29.333c-3.467 0-6.728-0.656-9.783-1.967-3.056-1.311-5.723-3.105-8-5.383-2.279-2.279-4.079-4.945-5.4-8-1.323-3.056-1.984-6.328-1.984-9.817-0.023-0.4 0.111-0.751 0.4-1.051s0.644-0.449 1.067-0.449h5.2c0.4 0 0.744 0.149 1.033 0.449s0.433 0.661 0.433 1.084c0 0.977 0.067 1.9 0.2 2.767s0.344 1.689 0.633 2.467c0.111 0.244 0.133 0.493 0.067 0.749s-0.2 0.495-0.4 0.717l-3.333 3.333c0.956 1.956 2.311 3.811 4.067 5.567s3.644 3.156 5.667 4.2l3.333-3.333c0.2-0.2 0.433-0.333 0.7-0.4s0.533-0.044 0.8 0.067c0.823 0.267 1.672 0.472 2.549 0.616 0.879 0.145 1.784 0.217 2.717 0.217 0.423 0 0.784 0.156 1.084 0.467s0.449 0.689 0.449 1.133v5.1c0 0.4-0.144 0.744-0.433 1.033-0.263 0.268-0.629 0.434-1.034 0.434-0.012 0-0.023-0-0.034-0l0.002 0zM20.167 25.333c1 0.377 2.044 0.677 3.133 0.9s2.211 0.367 3.367 0.433v-2.867c-0.81-0.054-1.537-0.137-2.254-0.251l0.138 0.018c-0.827-0.129-1.552-0.303-2.255-0.529l0.104 0.029-2.233 2.267zM26.667 16c0-2.977-1.033-5.5-3.1-7.567s-4.589-3.1-7.567-3.1v-2.667c1.844 0 3.577 0.349 5.2 1.049 1.644 0.709 3.048 1.671 4.234 2.851l-0-0c1.2 1.2 2.149 2.611 2.849 4.233 0.664 1.508 1.051 3.267 1.051 5.116 0 0.030-0 0.059-0 0.089l0-0.005h-2.667zM21.333 16c0-1.467-0.523-2.723-1.567-3.767s-2.3-1.567-3.767-1.567v-2.667c2.223 0 4.111 0.777 5.667 2.333s2.333 3.444 2.333 5.667h-2.667zM6.667 11.767l2.2-2.233c-0.153-0.523-0.31-1.209-0.432-1.906l-0.018-0.127c-0.111-0.61-0.2-1.354-0.246-2.11l-0.003-0.057h-2.8c0.044 1.067 0.177 2.133 0.4 3.2s0.523 2.144 0.9 3.233z"></path>
</symbol>
<symbol id="icon-play" viewBox="0 0 31 32">
<path fill="#fff" style="fill: var(--color4, #fff)" d="M21.897 14.803c-0.018 0.189-0.133 0.396-0.397 0.604l-7.786 6.162c-0.554 0.439-1.869 0.54-1.869-0.49v-11.402c0-0.934 1.412-1.165 1.976-0.783l7.785 5.239c0.297 0.201 0.362 0.44 0.291 0.671zM30.72 18.043c-0.822 19.671-34.052 15.597-30.446-5.111 1.513-8.689 8.745-13.258 16.691-12.708 8.947 0.621 13.594 8.737 13.755 17.69 0 0.022-0.013 0.041-0.017 0.063 0.003 0.024 0.019 0.038 0.018 0.067zM29.052 18.299c-0.134-6.337-2.387-13.181-8.2-15.905-7.703-3.61-16.78 0.648-18.737 9.421-1.751 7.846 2.143 14.804 9.267 17.321 7.594 2.683 17.254-1.539 17.669-10.838z"></path>
</symbol>
<symbol id="icon-slider-arrow" viewBox="0 0 34 32">
<path fill="#fff" style="fill: var(--color4, #fff)" d="M33.414 17.414c0.362-0.362 0.586-0.862 0.586-1.414s-0.224-1.052-0.586-1.414l-12.728-12.728c-0.357-0.335-0.838-0.541-1.368-0.541-1.105 0-2 0.895-2 2 0 0.53 0.206 1.012 0.543 1.37l-0.001-0.001 11.312 11.314-11.314 11.314c-0.377 0.364-0.611 0.874-0.611 1.439 0 1.105 0.895 2 2 2 0.564 0 1.074-0.234 1.438-0.61l0.001-0.001 12.728-12.728zM0 18h32v-4h-32v4z"></path>
</symbol>
<symbol id="icon-star" viewBox="0 0 34 32">
<path fill="#fcb62a" style="fill: var(--color3, #fcb62a)" d="M17.067 0l3.831 11.793h12.401l-10.033 7.287 3.831 11.793-10.031-7.287-10.031 7.287 3.831-11.793-10.031-7.287h12.399l3.831-11.793z"></path>
</symbol>
<symbol id="icon-symbol-dog" viewBox="0 0 32 32">
<path fill="#ff9f0e" style="fill: var(--color1, #ff9f0e)" d="M16 29.333c-0.020 0-0.044 0-0.068 0-1.843 0-3.596-0.387-5.181-1.083l0.083 0.032c-1.651-0.713-3.060-1.68-4.25-2.867l0 0c-1.187-1.189-2.154-2.599-2.833-4.162l-0.034-0.087c-0.664-1.503-1.051-3.255-1.051-5.098 0-0.024 0-0.048 0-0.072l-0 0.004c-0-0.027-0-0.060-0-0.092 0-1.84 0.387-3.59 1.083-5.173l-0.032 0.082c0.716-1.644 1.682-3.048 2.867-4.233l-0 0c1.189-1.187 2.599-2.154 4.162-2.834l0.087-0.034c1.503-0.663 3.256-1.050 5.098-1.050 0.024 0 0.048 0 0.072 0l-0.004-0c0.028-0 0.060-0 0.093-0 1.84 0 3.59 0.386 5.173 1.082l-0.083-0.032c1.644 0.717 3.048 1.683 4.233 2.868l-0-0c1.185 1.185 2.151 2.589 2.833 4.146l0.034 0.087c0.664 1.5 1.051 3.25 1.051 5.091 0 0.032-0 0.065-0 0.097l0-0.005v1.933c0 1.311-0.449 2.427-1.349 3.349s-2.007 1.384-3.317 1.384c-0.8 0-1.544-0.177-2.233-0.533-0.678-0.347-1.245-0.818-1.692-1.389l-0.008-0.011c-1.199 1.195-2.853 1.934-4.68 1.934-0.019 0-0.038-0-0.057-0l0.003 0c-1.844 0-3.416-0.651-4.716-1.951s-1.951-2.872-1.951-4.716 0.651-3.417 1.951-4.717c1.3-1.3 2.872-1.949 4.716-1.949s3.417 0.649 4.717 1.949c1.3 1.3 1.949 2.873 1.949 4.717v1.933c0 0.644 0.2 1.149 0.6 1.516s0.867 0.551 1.4 0.551 1-0.184 1.4-0.551c0.4-0.367 0.6-0.872 0.6-1.516v-1.933c0-2.911-1.051-5.417-3.151-7.517s-4.605-3.149-7.516-3.149c-2.911 0-5.417 1.049-7.517 3.149s-3.149 4.607-3.149 7.517 1.049 5.416 3.149 7.516c2.1 2.1 4.607 3.151 7.517 3.151h6.667v2.667h-6.667zM16 20c1.111 0 2.056-0.389 2.833-1.167 0.72-0.702 1.167-1.681 1.167-2.765 0-0.024-0-0.048-0.001-0.072l0 0.004c0-1.111-0.389-2.056-1.167-2.833-0.702-0.72-1.681-1.167-2.765-1.167-0.024 0-0.048 0-0.072 0.001l0.004-0c-1.111 0-2.056 0.389-2.833 1.167-0.72 0.702-1.167 1.681-1.167 2.765 0 0.024 0 0.048 0.001 0.072l-0-0.004c0 1.111 0.389 2.056 1.167 2.833 0.702 0.72 1.681 1.167 2.765 1.167 0.024 0 0.048-0 0.072-0.001l-0.004 0z"></path>
</symbol>
<symbol id="icon-user" viewBox="0 0 32 32">
<path fill="#ff9f0e" style="fill: var(--color1, #ff9f0e)" d="M11.384 9.715c0-1.125 0.445-2.204 1.24-3 0.766-0.77 1.827-1.246 2.999-1.246 2.337 0 4.232 1.895 4.232 4.232 0 0.005 0 0.010-0 0.014v-0.001c0 1.125-0.447 2.204-1.24 3-0.766 0.77-1.827 1.246-2.999 1.246-2.337 0-4.232-1.895-4.232-4.232 0-0.005 0-0.010 0-0.014v0.001zM15.619 3.048c-0 0-0 0-0 0-1.838 0-3.502 0.746-4.706 1.952l-0 0c-1.205 1.207-1.95 2.873-1.95 4.714s0.745 3.507 1.95 4.714l-0-0c1.204 1.206 2.868 1.952 4.707 1.952s3.503-0.746 4.707-1.952l0-0c1.205-1.207 1.95-2.873 1.95-4.713s-0.745-3.506-1.95-4.713l0 0c-1.204-1.207-2.868-1.953-4.707-1.953h-0zM5.333 22.44c0-0.003 0-0.006 0-0.009 0-2.003 1.624-3.627 3.627-3.627 0.001 0 0.003 0 0.004 0h13.31c1.003 0 1.91 0.407 2.567 1.065l0 0c0.657 0.658 1.064 1.567 1.064 2.571v0.275c-0.003 0.112-0.011 0.227-0.025 0.337-0.024 0.211-0.068 0.495-0.157 0.832-0.25 0.937-0.666 1.754-1.219 2.459l0.011-0.015c-1.416 1.821-4.080 3.385-8.896 3.385s-7.477-1.564-8.895-3.385c-0.543-0.69-0.96-1.507-1.2-2.397l-0.011-0.047c-0.092-0.343-0.156-0.743-0.178-1.154l-0.001-0.015v-0.028l-0.001-0.009v-0.236zM7.753 22.656v0.013c0.017 0.205 0.052 0.407 0.103 0.605 0.109 0.421 0.331 0.991 0.776 1.564 0.853 1.096 2.728 2.451 6.987 2.451 4.26 0 6.136-1.355 6.987-2.449 0.347-0.442 0.614-0.965 0.768-1.535l0.007-0.030c0.053-0.199 0.088-0.4 0.104-0.604l0.001-0.015v-0.216c-0.001-0.668-0.541-1.21-1.209-1.212h-13.312c-0 0-0.001 0-0.001 0-0.668 0-1.209 0.541-1.209 1.209 0 0.001 0 0.003 0 0.004v-0 0.215z"></path>
</symbol>
</defs>
</svg>
