<svg width="60" height="57" viewBox="0 0 60 57" fill="none" xmlns="http://www.w3.org/2000/svg">
<path d="M30.2659 26.8918C27.8204 23.1688 23.3975 23.9416 17.9142 22.2104C9.92643 19.7239 6.65633 23.1566 7.7444 26.7211C8.73324 30.2078 14.2689 31.1176 16.1408 34.5422C18.2667 37.8643 15.5912 42.3909 18.4353 45.0697C21.1802 47.6709 25.8753 46.2163 27.7394 38.634C28.9491 33.5532 32.5566 30.795 30.2659 26.8918Z" fill="#839AA9"/>
<path d="M27.8502 16.511C26.143 20.2389 22.3842 22.5362 19.827 21.455C17.2698 20.3737 15.8386 15.9132 17.6451 12.2629C19.3523 8.5349 23.0119 6.15991 25.6683 7.31889C28.3247 8.47787 29.5574 12.783 27.8502 16.511Z" fill="#839AA9"/>
<path d="M38.3442 36.038C34.0891 35.2925 31.0391 36.32 30.8488 38.9007C30.6585 41.4814 33.3985 43.6266 37.6264 44.2071C41.8816 44.9526 44.9315 43.9252 45.1218 41.3445C45.3121 38.7638 42.5722 36.6186 38.3442 36.038Z" fill="#839AA9"/>
<path d="M39.6308 21.9026C36.1182 24.5738 31.1998 24.6523 29.1231 22.4068C27.0464 20.1613 28.3623 16.0068 31.8748 13.3355C35.3873 10.6643 40.3058 10.5858 42.3825 12.8313C44.4592 15.0768 43.1433 19.2313 39.6308 21.9026Z" fill="#839AA9"/>
<path d="M41.087 22.493C36.883 23.7406 33.6129 27.3571 34.6826 29.9517C35.7523 32.5463 39.818 33.5223 44.022 32.2747C48.226 31.027 51.4962 27.4106 50.4264 24.816C49.3567 22.2214 45.291 21.2454 41.087 22.493Z" fill="#839AA9"/>
</svg>
