<svg width="60" height="57" viewBox="0 0 60 57" fill="none" xmlns="http://www.w3.org/2000/svg">
<path d="M30.2629 26.532C32.7099 22.8052 36.8659 23.7769 42.3546 22.0451C50.3502 19.5579 54.0457 22.7011 52.9575 26.2695C51.9687 29.7601 46.6885 30.5741 44.8156 34.0023C42.6885 37.3278 44.6955 41.7929 41.8491 44.4742C39.102 47.0777 34.2606 45.8881 32.3922 38.2962C31.1797 33.209 27.971 30.4392 30.2629 26.532Z" fill="#839AA9"/>
<path d="M32.9338 15.8375C34.644 19.5706 38.1834 21.5642 40.7431 20.4823C43.3029 19.4004 43.9714 15.3419 42.1618 11.6866C40.4515 7.95345 37.0115 5.88201 34.3524 7.04173C31.6933 8.20144 31.2235 12.1044 32.9338 15.8375Z" fill="#839AA9"/>
<path d="M21.9965 34.9036C26.256 34.1584 29.7855 35.7112 29.9768 38.295C30.1681 40.8789 26.8342 43.4891 22.6019 44.0692C18.3424 44.8143 14.8128 43.2616 14.6215 40.6777C14.4302 38.0939 17.7641 35.4837 21.9965 34.9036Z" fill="#839AA9"/>
<path d="M20.8339 21.111C24.3513 23.7865 28.8438 24.1473 30.9222 21.8995C33.0006 19.6518 31.7269 15.5298 28.2096 12.8543C24.6923 10.1788 20.1998 9.81803 18.1214 12.0658C16.043 14.3135 17.3166 18.4355 20.8339 21.111Z" fill="#839AA9"/>
<path d="M19.6449 22.0775C23.8541 23.3278 26.3154 26.3865 25.2452 28.984C24.175 31.5816 19.9864 32.6614 15.7772 31.4111C11.5681 30.1608 9.10677 27.1022 10.177 24.5046C11.2471 21.9071 15.4358 20.8272 19.6449 22.0775Z" fill="#839AA9"/>
</svg>
